#!OML:ASF Y:\EmotionMaleHayes\Project 1\Capture day 1\Session 1\Male1.ASF
:FULLY-SPECIFIED
:DEGREES
1461
root 48.7222 17.1376 -1.2991 1182.99 85.2698 1186.41
lowerback 1.44658 2.69092 -7.15404
upperback 2.7045 3.7523 -3.32722
thorax 1.76173 1.82848 0.562466
lowerneck -26.9376 1.6195 2.50973
upperneck 16.4963 2.12441 -3.72706
head 9.68405 0.691026 -1.39051
rclavicle 2.42517e-014 -3.49861e-014
rhumerus -31.8297 5.95423 -91.2657
rradius 34.23
rwrist -0.684754
rhand -4.03215 -33.1318
rfingers 7.12502
rthumb 21.7231 -61.9329
lclavicle 2.42517e-014 -3.49861e-014
lhumerus -29.6488 -27.8316 92.4281
lradius 33.7849
lwrist 3.27374
lhand -11.5504 -20.6365
lfingers 7.12502
lthumb 14.4902 8.83756
rfemur 10.465 -2.55015 4.31564
rtibia 5.93788
rfoot -16.9903 -6.60241
rtoes 13.5365
lfemur 14.3709 -5.21358 -20.5223
ltibia 2.71798
lfoot -13.5107 5.48079
ltoes -7.85559
1462
root 48.7256 17.143 -1.26676 1183.17 84.5121 1186.42
lowerback 1.53589 2.61329 -7.91849
upperback 2.50492 3.62985 -3.46041
thorax 1.47957 1.76966 0.835208
lowerneck -26.9571 1.63616 2.53352
upperneck 16.5481 2.05628 -3.38104
head 9.69841 0.702587 -1.28264
rclavicle 1.68967e-014 2.06736e-014
rhumerus -32.3877 5.82448 -91.5448
rradius 34.0964
rwrist -0.750248
rhand -3.6158 -33.0788
rfingers 7.12502
rthumb 22.1229 -61.8332
lclavicle 1.68967e-014 2.06736e-014
lhumerus -30.3404 -26.5353 92.6071
lradius 33.6291
lwrist 3.04103
lhand -11.21 -20.733
lfingers 7.12502
lthumb 14.8182 8.71721
rfemur 10.36 -2.58612 3.52724
rtibia 5.99838
rfoot -17.225 -6.65233
rtoes 14.1323
lfemur 14.1365 -5.27862 -21.2235
ltibia 2.75806
lfoot -13.4395 5.41516
ltoes -8.09485
1463
root 48.7459 17.1375 -1.23737 1187.05 84.9821 1190.34
lowerback 1.69746 2.53477 -7.27278
upperback 2.34627 3.48262 -3.2664
thorax 1.25468 1.70856 0.670257
lowerneck -27.0456 1.71213 2.63961
upperneck 16.7218 2.03533 -3.02013
head 9.77052 0.742531 -1.17563
rclavicle 2.75317e-014 -1.43125e-014
rhumerus -32.953 5.86431 -91.843
rradius 33.9275
rwrist -0.875018
rhand -3.11059 -33.0074
rfingers 7.12502
rthumb 22.6078 -61.7034
lclavicle 2.75317e-014 -1.43125e-014
lhumerus -31.1392 -25.4277 92.8354
lradius 33.5475
lwrist 3.01902
lhand -11.0748 -20.5732
lfingers 7.12502
lthumb 14.9484 8.86735
rfemur 10.6669 -2.91915 4.21796
rtibia 5.78842
rfoot -17.207 -6.51999
rtoes 13.5009
lfemur 14.3121 -5.26252 -20.3895
ltibia 2.58383
lfoot -13.405 5.21296
ltoes -9.38757
1464
root 48.7509 17.1349 -1.19165 1186.61 84.4135 1189.79
lowerback 1.52934 2.46947 -8.10779
upperback 2.43203 3.42087 -3.24084
thorax 1.39857 1.66055 1.16602
lowerneck -27.2939 1.75226 2.70157
upperneck 16.5654 2.00213 -2.79263
head 9.7524 0.757923 -1.10895
rclavicle -9.0944e-015 -1.59028e-015
rhumerus -33.0784 6.10408 -92.1005
rradius 33.6578
rwrist -2.01342
rhand -4.29121 -32.0784
rfingers 7.12502
rthumb 21.4743 -60.9082
lclavicle -9.0944e-015 -1.59028e-015
lhumerus -31.3078 -24.3325 92.9356
lradius 33.3554
lwrist 3.02981
lhand -10.9439 -20.4565
lfingers 7.12502
lthumb 15.0746 8.97466
rfemur 10.7709 -2.54568 3.79238
rtibia 5.47524
rfoot -17.3606 -6.87343
rtoes 14.2676
lfemur 14.124 -5.25045 -20.7716
ltibia 2.64208
lfoot -13.4006 5.13617
ltoes -9.79605
1465
root 48.7613 17.1357 -1.16982 1190.5 84.8242 1193.55
lowerback 1.57275 2.37554 -7.52434
upperback 2.27417 3.26457 -3.01999
thorax 1.23638 1.59167 1.0691
lowerneck -27.3635 1.75233 2.738
upperneck 16.5313 1.91439 -2.4916
head 9.74556 0.756694 -1.02146
rclavicle 1.54307e-014 -3.4191e-014
rhumerus -33.6545 5.99459 -92.2834
rradius 33.6843
rwrist -2.34354
rhand -4.50895 -31.8722
rfingers 7.12502
rthumb 21.2652 -60.7257
lclavicle 1.54307e-014 -3.4191e-014
lhumerus -31.8765 -23.191 93.1343
lradius 33.209
lwrist 2.91172
lhand -10.6105 -20.3518
lfingers 7.12502
lthumb 15.3957 9.0549
rfemur 10.8191 -2.91165 4.41455
rtibia 5.3473
rfoot -17.3079 -6.68159
rtoes 14.3719
lfemur 14.0531 -5.31165 -20.0516
ltibia 2.53836
lfoot -13.3411 5.02408
ltoes -9.4453
1466
root 48.7898 17.1314 -1.13601 1191.27 84.4217 1194.26
lowerback 1.1562 2.25951 -7.99828
upperback 2.39721 3.165 -2.98687
thorax 1.58184 1.52171 1.38711
lowerneck -27.4452 1.7729 2.80539
upperneck 16.2572 1.83705 -2.1802
head 9.65565 0.764043 -0.932925
rclavicle 3.20292e-014 9.54166e-015
rhumerus -33.8747 6.05603 -92.4502
rradius 33.7868
rwrist -2.49319
rhand -4.30009 -32.1088
rfingers 7.12502
rthumb 21.4658 -60.9395
lclavicle 3.20292e-014 9.54166e-015
lhumerus -32.1199 -22.2777 93.2327
lradius 33.0563
lwrist 3.08873
lhand -10.4405 -20.2183
lfingers 7.12502
lthumb 15.5594 9.17578
rfemur 11.0493 -3.20519 3.97493
rtibia 5.12704
rfoot -17.196 -6.62721
rtoes 13.1122
lfemur 14.1058 -5.32919 -20.3294
ltibia 2.42463
lfoot -13.2742 4.88681
ltoes -10.4654
1467
root 48.7888 17.129 -1.11863 1189.6 83.2054 1192.4
lowerback 1.46139 2.16834 -9.11078
upperback 2.09193 2.99728 -3.25939
thorax 1.07385 1.45419 1.69755
lowerneck -27.2443 1.74848 2.87282
upperneck 16.1313 1.72204 -1.91955
head 9.57211 0.748673 -0.869792
rclavicle -1.2921e-015 9.54166e-015
rhumerus -34.5424 6.28276 -92.7226
rradius 33.8313
rwrist -2.73602
rhand -3.78758 -32.2019
rfingers 7.12502
rthumb 21.9579 -60.9757
lclavicle -1.2921e-015 9.54166e-015
lhumerus -32.977 -21.4605 93.5322
lradius 32.9792
lwrist 3.42446
lhand -10.5559 -20.3845
lfingers 7.12502
lthumb 15.4483 9.01817
rfemur 10.9183 -4.01863 2.21805
rtibia 5.29076
rfoot -16.9639 -6.1406
rtoes 12.092
lfemur 13.7858 -5.4415 -21.7852
ltibia 2.60756
lfoot -13.2976 4.84166
ltoes -11.75
1468
root 48.8061 17.1178 -1.08275 1197.41 84.804 1200.46
lowerback 1.66822 2.13416 -7.36479
upperback 2.12927 2.9046 -2.6466
thorax 1.04497 1.41328 1.36311
lowerneck -27.3936 1.72265 2.88689
upperneck 16.0947 1.6219 -1.67954
head 9.57891 0.732358 -0.802262
rclavicle 1.61513e-015 8.74653e-015
rhumerus -34.8332 6.4363 -92.8553
rradius 33.8613
rwrist -2.85897
rhand -2.91996 -32.5008
rfingers 7.12502
rthumb 22.7908 -61.1745
lclavicle 1.61513e-015 8.74653e-015
lhumerus -33.4713 -20.8286 93.8005
lradius 32.7608
lwrist 3.34422
lhand -11.3914 -20.9029
lfingers 7.12502
lthumb 14.6434 8.56009
rfemur 11.3597 -3.47604 4.81586
rtibia 4.89418
rfoot -17.1164 -6.75657
rtoes 12.4826
lfemur 14.1988 -5.53771 -19.3805
ltibia 2.36771
lfoot -13.3107 4.65133
ltoes -12.2972
1469
root 48.8125 17.1163 -1.04851 1200.05 85.0062 1203.05
lowerback 1.69391 2.10336 -7.17175
upperback 2.09794 2.85076 -2.44641
thorax 0.999673 1.38612 1.46154
lowerneck -27.5376 1.70582 2.92071
upperneck 16.0356 1.52907 -1.44981
head 9.57749 0.719673 -0.740326
rclavicle 1.00883e-014 -6.36111e-015
rhumerus -35.1756 6.3624 -92.8992
rradius 34.1136
rwrist -2.83554
rhand -2.78387 -32.7804
rfingers 7.12502
rthumb 22.9214 -61.4379
lclavicle 1.00883e-014 -6.36111e-015
lhumerus -33.9468 -20.3618 94.1273
lradius 32.4649
lwrist 2.91325
lhand -12.6501 -21.5076
lfingers 7.12502
lthumb 13.4305 8.03944
rfemur 11.4035 -3.26482 5.40535
rtibia 4.6937
rfoot -17.2515 -7.00515
rtoes 12.7269
lfemur 14.0697 -5.60106 -18.8289
ltibia 2.43603
lfoot -13.2863 4.61361
ltoes -12.7454
